<svg xmlns="http://www.w3.org/2000/svg" width="1600" height="1000" viewBox="0 0 1600 1000">
  <defs>
    <linearGradient id="bg" x1="0%" y1="0%" x2="100%" y2="100%">
      <stop offset="0%" style="stop-color:#0d0d1a"/>
      <stop offset="100%" style="stop-color:#1a0d1a"/>
    </linearGradient>
  </defs>
  <rect width="1600" height="1000" fill="url(#bg)"/>
  <!-- Metric cards -->
  <rect x="120" y="60" width="340" height="100" rx="12" fill="#1a1a2e" stroke="#2a2a4a" stroke-width="1"/>
  <text x="150" y="98" font-family="Inter, sans-serif" font-size="13" fill="#6b7280">Total Value Locked</text>
  <text x="150" y="135" font-family="Inter, sans-serif" font-size="28" fill="#a855f7" font-weight="700">$48.7M</text>
  <rect x="500" y="60" width="340" height="100" rx="12" fill="#1a1a2e" stroke="#2a2a4a" stroke-width="1"/>
  <text x="530" y="98" font-family="Inter, sans-serif" font-size="13" fill="#6b7280">Unique Users</text>
  <text x="530" y="135" font-family="Inter, sans-serif" font-size="28" fill="#f5f5f5" font-weight="700">12,483</text>
  <rect x="880" y="60" width="340" height="100" rx="12" fill="#1a1a2e" stroke="#2a2a4a" stroke-width="1"/>
  <text x="910" y="98" font-family="Inter, sans-serif" font-size="13" fill="#6b7280">Daily Txns</text>
  <text x="910" y="135" font-family="Inter, sans-serif" font-size="28" fill="#10b981" font-weight="700">34.2K</text>
  <!-- Donut chart -->
  <circle cx="400" cy="520" r="180" fill="none" stroke="#2a2a4a" stroke-width="40"/>
  <circle cx="400" cy="520" r="180" fill="none" stroke="#a855f7" stroke-width="40" stroke-dasharray="400 730" stroke-dashoffset="0" opacity="0.9"/>
  <circle cx="400" cy="520" r="180" fill="none" stroke="#7c3aed" stroke-width="40" stroke-dasharray="250 880" stroke-dashoffset="-400" opacity="0.8"/>
  <circle cx="400" cy="520" r="180" fill="none" stroke="#10b981" stroke-width="40" stroke-dasharray="200 930" stroke-dashoffset="-650" opacity="0.8"/>
  <circle cx="400" cy="520" r="180" fill="none" stroke="#06b6d4" stroke-width="40" stroke-dasharray="130 1000" stroke-dashoffset="-850" opacity="0.7"/>
  <text x="400" y="510" font-family="Inter, sans-serif" font-size="32" fill="#f5f5f5" text-anchor="middle" font-weight="700">$48.7M</text>
  <text x="400" y="545" font-family="Inter, sans-serif" font-size="14" fill="#6b7280" text-anchor="middle">Total TVL</text>
  <!-- Legend -->
  <g transform="translate(340, 740)">
    <circle cx="0" cy="0" r="6" fill="#a855f7"/><text x="16" y="5" font-family="Inter, sans-serif" font-size="13" fill="#a3a3a3">Lending 35%</text>
    <circle cx="160" cy="0" r="6" fill="#7c3aed"/><text x="176" y="5" font-family="Inter, sans-serif" font-size="13" fill="#a3a3a3">Staking 22%</text>
  </g>
  <g transform="translate(340, 770)">
    <circle cx="0" cy="0" r="6" fill="#10b981"/><text x="16" y="5" font-family="Inter, sans-serif" font-size="13" fill="#a3a3a3">LP 18%</text>
    <circle cx="160" cy="0" r="6" fill="#06b6d4"/><text x="176" y="5" font-family="Inter, sans-serif" font-size="13" fill="#a3a3a3">Other 25%</text>
  </g>
  <!-- Right side - horizontal bar chart -->
  <g transform="translate(750, 240)">
    <text x="0" y="0" font-family="Inter, sans-serif" font-size="16" fill="#a3a3a3" font-weight="600">Pool Distribution</text>
    <text x="0" y="50" font-family="Inter, sans-serif" font-size="13" fill="#6b7280">USDC/USDT</text>
    <rect x="120" y="36" width="500" height="22" rx="4" fill="#a855f7" opacity="0.8"/>
    <text x="0" y="95" font-family="Inter, sans-serif" font-size="13" fill="#6b7280">ETH/WETH</text>
    <rect x="120" y="81" width="380" height="22" rx="4" fill="#7c3aed" opacity="0.8"/>
    <text x="0" y="140" font-family="Inter, sans-serif" font-size="13" fill="#6b7280">WBTC/BTC</text>
    <rect x="120" y="126" width="300" height="22" rx="4" fill="#10b981" opacity="0.8"/>
    <text x="0" y="185" font-family="Inter, sans-serif" font-size="13" fill="#6b7280">MON/USDC</text>
    <rect x="120" y="171" width="220" height="22" rx="4" fill="#06b6d4" opacity="0.8"/>
    <text x="0" y="230" font-family="Inter, sans-serif" font-size="13" fill="#6b7280">DAI/USDC</text>
    <rect x="120" y="216" width="160" height="22" rx="4" fill="#f59e0b" opacity="0.7"/>
  </g>
  <!-- Sparkline at bottom right -->
  <g transform="translate(750, 600)">
    <text x="0" y="0" font-family="Inter, sans-serif" font-size="16" fill="#a3a3a3" font-weight="600">TVL Trend (7d)</text>
    <polyline points="0,120 40,110 80,90 120,95 160,80 200,60 240,65 280,50 320,55 360,40 400,35 440,30 480,25 520,20" stroke="#a855f7" stroke-width="2.5" fill="none"/>
  </g>
  <text x="800" y="920" font-family="Inter, sans-serif" font-size="20" fill="#4a4a6a" text-anchor="middle" font-weight="600">Curvance on Monad</text>
  <circle cx="400" cy="500" r="300" fill="#a855f7" opacity="0.02"/>
</svg>
