<svg xmlns="http://www.w3.org/2000/svg" width="1600" height="1000" viewBox="0 0 1600 1000">
  <defs>
    <linearGradient id="bg" x1="0%" y1="0%" x2="100%" y2="100%">
      <stop offset="0%" style="stop-color:#0d0d1a"/>
      <stop offset="100%" style="stop-color:#1a0d0d"/>
    </linearGradient>
    <linearGradient id="whale" x1="0%" y1="0%" x2="0%" y2="100%">
      <stop offset="0%" style="stop-color:#f59e0b;stop-opacity:0.3"/>
      <stop offset="100%" style="stop-color:#f59e0b;stop-opacity:0"/>
    </linearGradient>
  </defs>
  <rect width="1600" height="1000" fill="url(#bg)"/>
  <!-- Metric cards -->
  <rect x="120" y="60" width="300" height="100" rx="12" fill="#1a1a2e" stroke="#3a2a1e" stroke-width="1"/>
  <text x="150" y="98" font-family="Inter, sans-serif" font-size="13" fill="#6b7280">Whale Txns (24h)</text>
  <text x="150" y="135" font-family="Inter, sans-serif" font-size="28" fill="#f59e0b" font-weight="700">847</text>
  <rect x="460" y="60" width="300" height="100" rx="12" fill="#1a1a2e" stroke="#3a2a1e" stroke-width="1"/>
  <text x="490" y="98" font-family="Inter, sans-serif" font-size="13" fill="#6b7280">Avg Impact</text>
  <text x="490" y="135" font-family="Inter, sans-serif" font-size="28" fill="#ef4444" font-weight="700">-2.3%</text>
  <rect x="800" y="60" width="300" height="100" rx="12" fill="#1a1a2e" stroke="#3a2a1e" stroke-width="1"/>
  <text x="830" y="98" font-family="Inter, sans-serif" font-size="13" fill="#6b7280">Volume Moved</text>
  <text x="830" y="135" font-family="Inter, sans-serif" font-size="28" fill="#f5f5f5" font-weight="700">$127M</text>
  <rect x="1140" y="60" width="340" height="100" rx="12" fill="#1a1a2e" stroke="#3a2a1e" stroke-width="1"/>
  <text x="1170" y="98" font-family="Inter, sans-serif" font-size="13" fill="#6b7280">Price Correlation</text>
  <text x="1170" y="135" font-family="Inter, sans-serif" font-size="28" fill="#7c3aed" font-weight="700">0.87</text>
  <!-- Grid -->
  <g stroke="#1e1e3a" stroke-width="1" opacity="0.3">
    <line x1="120" y1="280" x2="1480" y2="280"/>
    <line x1="120" y1="400" x2="1480" y2="400"/>
    <line x1="120" y1="520" x2="1480" y2="520"/>
    <line x1="120" y1="640" x2="1480" y2="640"/>
  </g>
  <!-- Candlestick chart -->
  <g>
    <!-- Green candles (up) -->
    <line x1="180" y1="380" x2="180" y2="520" stroke="#10b981" stroke-width="2"/>
    <rect x="168" y="410" width="24" height="80" rx="2" fill="#10b981" opacity="0.8"/>
    <line x1="300" y1="350" x2="300" y2="480" stroke="#10b981" stroke-width="2"/>
    <rect x="288" y="370" width="24" height="80" rx="2" fill="#10b981" opacity="0.8"/>
    <line x1="540" y1="300" x2="540" y2="450" stroke="#10b981" stroke-width="2"/>
    <rect x="528" y="320" width="24" height="100" rx="2" fill="#10b981" opacity="0.8"/>
    <line x1="780" y1="340" x2="780" y2="500" stroke="#10b981" stroke-width="2"/>
    <rect x="768" y="360" width="24" height="90" rx="2" fill="#10b981" opacity="0.8"/>
    <line x1="1140" y1="280" x2="1140" y2="420" stroke="#10b981" stroke-width="2"/>
    <rect x="1128" y="300" width="24" height="90" rx="2" fill="#10b981" opacity="0.8"/>
    <!-- Red candles (down) -->
    <line x1="420" y1="340" x2="420" y2="500" stroke="#ef4444" stroke-width="2"/>
    <rect x="408" y="370" width="24" height="90" rx="2" fill="#ef4444" opacity="0.8"/>
    <line x1="660" y1="320" x2="660" y2="480" stroke="#ef4444" stroke-width="2"/>
    <rect x="648" y="350" width="24" height="90" rx="2" fill="#ef4444" opacity="0.8"/>
    <line x1="900" y1="300" x2="900" y2="460" stroke="#ef4444" stroke-width="2"/>
    <rect x="888" y="320" width="24" height="100" rx="2" fill="#ef4444" opacity="0.8"/>
    <line x1="1020" y1="310" x2="1020" y2="450" stroke="#ef4444" stroke-width="2"/>
    <rect x="1008" y="330" width="24" height="85" rx="2" fill="#ef4444" opacity="0.8"/>
    <line x1="1260" y1="290" x2="1260" y2="410" stroke="#ef4444" stroke-width="2"/>
    <rect x="1248" y="310" width="24" height="70" rx="2" fill="#ef4444" opacity="0.8"/>
  </g>
  <!-- Whale transaction markers -->
  <g>
    <circle cx="420" cy="370" r="12" fill="#f59e0b" opacity="0.3"/>
    <circle cx="420" cy="370" r="6" fill="#f59e0b" opacity="0.8"/>
    <circle cx="660" cy="350" r="16" fill="#f59e0b" opacity="0.25"/>
    <circle cx="660" cy="350" r="8" fill="#f59e0b" opacity="0.8"/>
    <circle cx="900" cy="320" r="20" fill="#f59e0b" opacity="0.2"/>
    <circle cx="900" cy="320" r="10" fill="#f59e0b" opacity="0.8"/>
    <circle cx="1260" cy="310" r="14" fill="#f59e0b" opacity="0.25"/>
    <circle cx="1260" cy="310" r="7" fill="#f59e0b" opacity="0.8"/>
  </g>
  <!-- Volume bars at bottom -->
  <g opacity="0.5">
    <rect x="168" y="740" width="24" height="60" rx="2" fill="#10b981"/>
    <rect x="288" y="720" width="24" height="80" rx="2" fill="#10b981"/>
    <rect x="408" y="690" width="24" height="110" rx="2" fill="#ef4444"/>
    <rect x="528" y="730" width="24" height="70" rx="2" fill="#10b981"/>
    <rect x="648" y="680" width="24" height="120" rx="2" fill="#ef4444"/>
    <rect x="768" y="740" width="24" height="60" rx="2" fill="#10b981"/>
    <rect x="888" y="670" width="24" height="130" rx="2" fill="#ef4444"/>
    <rect x="1008" y="710" width="24" height="90" rx="2" fill="#ef4444"/>
    <rect x="1128" y="750" width="24" height="50" rx="2" fill="#10b981"/>
    <rect x="1248" y="700" width="24" height="100" rx="2" fill="#ef4444"/>
  </g>
  <text x="800" y="920" font-family="Inter, sans-serif" font-size="20" fill="#4a4a6a" text-anchor="middle" font-weight="600">Whale vs Price Impact — Arbitrum</text>
  <circle cx="800" cy="400" r="300" fill="#f59e0b" opacity="0.02"/>
</svg>
